:SAMPLES-PER-SECOND 30
:FULLY-SPECIFIED
:DEGREES
65
root  47.74 38.3656 12.296 -51.1402 -87.4649 46.3621
RightUpLeg  -20.6795 -19.4999 8.45001
RightLeg  18.9309 -7.17892 -2.44954
RightFoot  -2.68255 0.609228 -8.33899
RightToes  0.00048216 0.542163 -0.142577
Spine  12.243 -4.40335 -5.68615
Spine1  8.91903 -8.70575 12.639
HEad  -19.8281 2.5266 -0.353363
LeftShoulder1  7.05323 -11.4624 -40.826
LeftArm  -10.3605 -2.67156 -30.9055
LeftForeArm  33.8371 -30.6731 -4.81749
LeftHand  -0.25398 0.0180481 5.50724
RightShoulder  3.82059 6.48832 32.291
RightArm  -15.2165 -31.4817 35.947
RightForeArm  10.0752 49.7918 12.5487
RightHand  -3.21676 9.12566 -25.7402
LeftUpLeg  19.9452 22.7604 7.63377
LeftLeg  21.3335 -3.80765 -0.857003
LeftFoot  -15.9939 -0.5126 -15.4643
LeftToes  1.06245e-005 4.65855e-005 -8.18504e-006
66
root  46.1223 38.2439 12.5184 -49.3893 -89.6653 44.7468
RightUpLeg  -20.7051 -16.7974 9.6608
RightLeg  23.585 -7.94237 -4.06469
RightFoot  -4.35754 0.671038 -11.3868
RightToes  0.00048216 0.542163 -0.142577
Spine  12.1905 -4.55366 -2.93236
Spine1  8.17738 -8.51865 13.5194
HEad  -19.1522 3.02566 -1.79561
LeftShoulder1  7.1584 -11.6042 -41.0649
LeftArm  -9.2957 0.860248 -32.3783
LeftForeArm  34.963 -30.8696 -4.80273
LeftHand  -0.25398 0.0180481 5.50724
RightShoulder  3.71132 6.25313 32.0912
RightArm  -20.3773 -28.1582 32.1112
RightForeArm  14.77 55.5766 15.2986
RightHand  -3.62699 10.1285 -27.087
LeftUpLeg  15.7345 19.9784 8.33262
LeftLeg  31.856 -0.758512 -0.100475
LeftFoot  -8.65253 0.480743 -18.8286
LeftToes  1.06245e-005 4.65855e-005 -8.18504e-006
67
root  44.6424 38.0961 12.7332 147.187 -87.7055 -151.535
RightUpLeg  -20.2439 -15.5178 10.6752
RightLeg  27.2896 -7.55967 -4.44009
RightFoot  -7.27228 0.349277 -11.0492
RightToes  0.00048216 0.542163 -0.142577
Spine  12.4394 -4.47962 -0.251717
Spine1  7.38746 -8.12667 14.6483
HEad  -18.5688 3.64875 -3.11088
LeftShoulder1  7.28014 -11.8722 -41.0347
LeftArm  -8.25899 4.80144 -34.082
LeftForeArm  36.713 -30.9149 -4.72016
LeftHand  -0.25398 0.0180481 5.50724
RightShoulder  3.64273 6.19753 31.5996
RightArm  -24.9692 -23.0403 27.8464
RightForeArm  18.9822 61.0121 18.9224
RightHand  -4.0998 11.1102 -28.7041
LeftUpLeg  8.71127 17.9097 8.59004
LeftLeg  44.5449 1.47261 1.9289
LeftFoot  4.50097 2.15569 -16.0559
LeftToes  1.06245e-005 4.65855e-005 -8.18504e-006
68
root  43.2752 37.914 12.9336 141.531 -85.0474 -145.65
RightUpLeg  -19.3045 -15.6548 11.7073
RightLeg  30.0594 -5.91153 -3.94143
RightFoot  -10.401 0.00981635 -9.76086
RightToes  0.00048216 0.542163 -0.142577
Spine  12.8262 -4.35258 2.27466
Spine1  7.23393 -7.72239 16.0305
HEad  -18.3661 4.60779 -3.96726
LeftShoulder1  7.36352 -12.1363 -40.7848
LeftArm  -6.85262 8.34581 -35.713
LeftForeArm  38.8528 -30.6113 -4.53876
LeftHand  -0.25398 0.0180481 5.50724
RightShoulder  3.49972 6.02908 30.7526
RightArm  -28.9166 -16.2566 23.5469
RightForeArm  22.7239 65.8974 23.7347
RightHand  -4.78795 12.5464 -30.7046
LeftUpLeg  0.881358 15.4456 8.39157
LeftLeg  56.037 1.9481 3.58147
LeftFoot  15.4204 2.21347 -9.59888
LeftToes  1.06245e-005 4.65855e-005 -8.18504e-006
69
root  41.8335 37.9596 13.0879 147.792 -82.4783 -151.883
RightUpLeg  -16.9867 -14.6042 11.6541
RightLeg  30.8903 -4.71223 -3.30208
RightFoot  -12.4571 -0.169674 -8.67368
RightToes  0.00048216 0.542163 -0.142577
Spine  12.9498 -3.86598 3.99539
Spine1  7.47224 -7.00751 16.6032
HEad  -18.2885 5.69994 -4.20303
LeftShoulder1  7.44154 -12.3242 -40.723
LeftArm  -4.63123 11.1548 -36.6069
LeftForeArm  40.5307 -29.6458 -4.23604
LeftHand  -0.25398 0.0180481 5.50724
RightShoulder  3.25919 5.61684 29.7596
RightArm  -32.8076 -8.67463 19.5608
RightForeArm  27.9526 70.0053 29.7115
RightHand  -5.72403 14.5502 -32.8783
LeftUpLeg  -5.80841 13.2744 7.47096
LeftLeg  64.1924 2.06914 5.34451
LeftFoot  17.382 0.871568 -3.69216
LeftToes  1.06245e-005 4.65855e-005 -8.18504e-006
70
root  40.2789 38.2837 13.1836 157.651 -79.951 -161.745
RightUpLeg  -13.5103 -12.0783 10.3584
RightLeg  29.7409 -4.22671 -2.86856
RightFoot  -13.5923 -0.242154 -7.6485
RightToes  0.00048216 0.542163 -0.142577
Spine  12.7646 -3.05567 4.86216
Spine1  7.57249 -5.90632 15.8483
HEad  -18.0806 6.61955 -4.02227
LeftShoulder1  7.56806 -12.4729 -41.0562
LeftArm  -2.0742 13.6607 -36.499
LeftForeArm  41.0043 -27.9783 -3.84734
LeftHand  -0.25398 0.0180481 5.50724
RightShoulder  2.9959 5.13347 28.6882
RightArm  -36.9744 -1.47897 16.1114
RightForeArm  36.2281 73.4438 37.1112
RightHand  -6.58818 16.2785 -34.6852
LeftUpLeg  -11.2749 11.6832 5.75054
LeftLeg  68.2004 2.84161 8.54813
LeftFoot  12.735 -0.203794 0.592843
LeftToes  1.06245e-005 4.65855e-005 -8.18504e-006
71
root  38.7006 38.6507 13.241 165.896 -77.5185 -169.836
RightUpLeg  -9.90523 -10.1395 8.40822
RightLeg  27.8199 -3.23765 -2.08186
RightFoot  -14.787 -0.297344 -6.56887
RightToes  0.00048216 0.542163 -0.142577
Spine  12.4346 -2.34832 5.44095
Spine1  7.37836 -4.80075 14.3948
HEad  -17.8331 7.30631 -3.79229
LeftShoulder1  7.73617 -12.6427 -41.5651
LeftArm  -0.189779 16.3842 -35.8049
LeftForeArm  40.1466 -25.7495 -3.40406
LeftHand  -0.25398 0.0180481 5.50724
RightShoulder  2.73921 4.6951 27.3725
RightArm  -41.1094 4.77474 13.3328
RightForeArm  47.2739 76.274 46.7908
RightHand  -7.26381 17.5097 -36.0611
LeftUpLeg  -16.0479 10.0925 3.80637
LeftLeg  68.2114 3.88231 11.3487
LeftFoot  7.21868 -0.49618 2.73241
LeftToes  1.06245e-005 4.65855e-005 -8.18504e-006
72
root  37.1171 38.99 13.2576 172.184 -75.287 -175.87
RightUpLeg  -6.28985 -9.38323 5.92146
RightLeg  25.3811 -1.37182 -0.643881
RightFoot  -15.7875 -0.3252 -5.61022
RightToes  0.00048216 0.542163 -0.142577
Spine  11.9829 -1.83081 5.79163
Spine1  7.02098 -3.8859 12.7069
HEad  -17.6837 7.91798 -3.69626
LeftShoulder1  7.89568 -12.8403 -41.9362
LeftArm  0.271031 19.303 -35.011
LeftForeArm  38.4885 -23.0281 -3.11547
LeftHand  -0.25398 0.0180481 5.50724
RightShoulder  2.45416 4.19009 25.8003
RightArm  -44.8989 10.2018 11.2132
RightForeArm  60.4587 78.3638 59.5526
RightHand  -7.88773 18.6529 -37.1904
LeftUpLeg  -19.9921 8.44323 2.01291
LeftLeg  64.5453 4.86714 11.6961
LeftFoot  3.88404 -0.524232 3.7281
LeftToes  1.06245e-005 4.65855e-005 -8.18504e-006
73
root  35.5383 39.3051 13.2269 176.784 -72.9578 179.838
RightUpLeg  -2.7895 -8.51278 3.3399
RightLeg  22.6542 0.432243 0.810593
RightFoot  -16.0009 -0.314401 -5.06207
RightToes  0.00048216 0.542163 -0.142577
Spine  11.4866 -1.31665 6.09644
Spine1  6.65383 -2.97714 10.6935
HEad  -17.576 8.60689 -3.72731
LeftShoulder1  7.99963 -13.0172 -42.0405
LeftArm  -1.55395 22.1427 -34.2297
LeftForeArm  37.5765 -19.9413 -3.56281
LeftHand  -0.25398 0.0180481 5.50724
RightShoulder  2.13312 3.52027 24.1988
RightArm  -48.4114 14.9519 9.57399
RightForeArm  75.7245 79.5832 75.2945
RightHand  -8.37209 19.5659 -37.9545
LeftUpLeg  -22.571 7.43092 0.659459
LeftLeg  57.2363 5.54728 9.76377
LeftFoot  1.55831 -0.408537 3.50377
LeftToes  1.06245e-005 4.65855e-005 -8.18504e-006
74
root  33.9768 39.5222 13.1601 179.466 -70.3834 177.564
RightUpLeg  0.250451 -7.84549 1.18504
RightLeg  20.3167 2.56656 1.87811
RightFoot  -16.0517 -0.309646 -4.88771
RightToes  0.00048216 0.542163 -0.142577
Spine  11.0526 -0.738531 6.57992
Spine1  6.27362 -1.9883 8.56507
HEad  -17.4821 9.46221 -3.90098
LeftShoulder1  8.01017 -13.0938 -41.8915
LeftArm  -4.52887 24.885 -33.5632
LeftForeArm  37.2481 -17.0098 -4.27586
LeftHand  -0.25398 0.0180481 5.50724
RightShoulder  1.80362 2.73826 22.6384
RightArm  -51.7669 18.9907 8.27538
RightForeArm  91.8886 79.8841 92.1537
RightHand  -8.55818 19.9001 -38.2534
LeftUpLeg  -23.6871 7.73575 -0.108663
LeftLeg  46.469 5.50112 6.61341
LeftFoot  0.088925 -0.212133 2.12879
LeftToes  1.06245e-005 4.65855e-005 -8.18504e-006
75
root  32.4187 39.6179 13.0628 -178.634 -67.8625 176.036
RightUpLeg  3.12408 -7.95782 -1.09558
RightLeg  18.3061 5.5629 2.85234
RightFoot  -16.5589 -0.308224 -4.31911
RightToes  0.00048216 0.542163 -0.142577
Spine  10.7377 -0.160566 6.54721
Spine1  5.96436 -1.14761 6.85386
HEad  -17.5936 10.5342 -4.21068
LeftShoulder1  7.91717 -13.026 -41.5507
LeftArm  -6.98388 27.5721 -33.1969
LeftForeArm  36.9285 -14.7555 -4.67458
LeftHand  -0.25398 0.0180481 5.50724
RightShoulder  1.48785 1.9415 20.9616
RightArm  -54.8321 22.209 7.30768
RightForeArm  106.345 79.3993 107.248
RightHand  -8.49306 19.7446 -38.2024
LeftUpLeg  -23.6115 9.79012 -1.03528
LeftLeg  33.365 4.86211 3.86172
LeftFoot  0.589561 -0.0831612 0.777331
LeftToes  1.06245e-005 4.65855e-005 -8.18504e-006
76
root  30.8486 39.6228 12.9411 -176.893 -65.8136 174.381
RightUpLeg  6.07452 -8.62493 -3.83893
RightLeg  16.6901 8.97887 3.69401
RightFoot  -17.0829 -0.265526 -2.98687
RightToes  0.00048216 0.542163 -0.142577
Spine  10.5744 0.240699 5.63317
Spine1  6.01563 -0.647671 5.7448
HEad  -18.1418 11.7962 -4.41439
LeftShoulder1  7.76099 -12.8792 -41.0597
LeftArm  -8.53278 29.96 -33.1639
LeftForeArm  36.9896 -13.141 -4.8183
LeftHand  -0.25398 0.0180481 5.50724
RightShoulder  1.21929 1.23808 19.2387
RightArm  -57.3881 24.3694 6.53585
RightForeArm  117.744 78.4043 119.188
RightHand  -8.32142 19.4329 -37.9284
LeftUpLeg  -22.6289 13.2501 -2.57618
LeftLeg  20.2783 5.2486 2.10515
LeftFoot  1.66863 0.0404042 -0.453647
LeftToes  1.06245e-005 4.65855e-005 -8.18504e-006
